<?xml version="1.0" standalone="no"?>
<!DOCTYPE svg PUBLIC "-//W3C//DTD SVG 1.1//EN" "http://www.w3.org/Graphics/SVG/1.1/DTD/svg11.dtd" >
<svg xmlns="http://www.w3.org/2000/svg" xmlns:xlink="http://www.w3.org/1999/xlink" version="1.1">
<metadata></metadata>
<defs>
<font id="sawarabi_minchomedium" horiz-adv-x="550" >
<font-face units-per-em="1000" ascent="800" descent="-200" />
<missing-glyph horiz-adv-x="300" />
<glyph horiz-adv-x="0" />
<glyph unicode="&#xd;" horiz-adv-x="333" />
<glyph unicode=" "  horiz-adv-x="300" />
<glyph unicode="&#x09;" horiz-adv-x="300" />
<glyph unicode="&#xa0;" horiz-adv-x="300" />
<glyph unicode="!" horiz-adv-x="363" d="M238 731q0 -200 -36 -528h-42q-35 348 -35 528q29 31 57 31t56 -31zM116 59q0 27 19 46t46 19t46 -19t19 -46t-19 -46t-46 -19t-46 19t-19 46z" />
<glyph unicode="&#x22;" horiz-adv-x="444" d="M178 734q0 -80 -27 -256h-35q-26 176 -26 256q14 33 44 33t44 -33zM354 734q0 -80 -27 -256h-35q-26 176 -26 256q14 33 44 33t44 -33z" />
<glyph unicode="#" horiz-adv-x="695" d="M266 250h121l43 180h-121zM206 0h-87l47 198h-136v52h149l43 180h-138v52h150l45 189h87l-45 -189h121l45 189h87l-45 -189h136v-52h-148l-43 -180h137v-52h-150l-47 -198h-87l47 198h-121z" />
<glyph unicode="$" horiz-adv-x="546" d="M313 316v-196q40 7 64.5 33t24.5 64.5t-14 51.5q-32 35 -52 40zM259 415v185q-29 -6 -57.5 -33.5t-28.5 -62.5t21.5 -54t52.5 -30zM356 647q0 7 -10 21h54l76 -139l-36 -31l-19 27l-30 29q-25 26 -42 34.5t-36 11.5v-204q74 -23 102 -43q73 -50 73 -134q0 -46 -20 -80 q-51 -81 -155 -89v-61h-54v64q-43 8 -77 27v-6q0 -4 4 -9l7 -8h-61l-75 137l41 32l18 -28l30 -31q39 -46 113 -50v216q-63 22 -99 42q-71 39 -71 122v2q0 41 19 74t44 50q53 36 107 37v62h54v-68q22 -5 43 -16v9z" />
<glyph unicode="%" horiz-adv-x="726" d="M46 68l543 547h81l-542 -547h-82zM555 281q-9 6 -24.5 6t-25.5 -6q-51 -22 -51 -107.5t51 -114.5q10 -6 18 -6h9q76 4 76 113q0 82 -53 115zM535 4h-7q-41 0 -75 16q-82 39 -82 150.5t84 150.5q33 15 72 15h8q39 0 69 -15q88 -42 88 -152.5t-84 -149.5q-33 -15 -73 -15z M118 526q0 -89 49 -113q11 -6 18 -6h10q76 4 76 117q0 80 -52 111q-8 5 -18 5h-9q-74 -4 -74 -114zM116 373q-82 39 -82 149.5t86 152.5q32 16 72.5 16t74.5 -17q88 -42 88 -152t-86 -149q-35 -16 -75 -16h-3q-41 0 -75 16z" />
<glyph unicode="&#x26;" horiz-adv-x="784" d="M284 402q97 97 97 171q-1 44 -31 69q-12 10 -27.5 15.5t-21.5 5.5h-5q-61 0 -83 -49q-10 -21 -10 -66q0 -7 21.5 -54.5t40.5 -69.5zM262 65q131 0 189 61q-63 71 -197 198q-102 -84 -102 -148v-4q3 -55 25 -71t85 -36zM600 304q-38 -130 -63 -155l65 -63q49 -39 83 -39 h51v-47h-158l-90 87q-94 -98 -226 -101q-98 0 -151 48t-53 133v8q0 32 59 101q38 44 103 86q-39 29 -84 112q-20 37 -20 79.5t19 77.5q43 81 158 82q52 0 98 -31q28 -19 46.5 -50.5t18.5 -70.5v-2q0 -63 -41.5 -103.5t-99.5 -82.5q-5 -13 104 -110l81 -73q45 85 45 110 q0 4 -1 7q-15 33 -40 33h-38v47h201v-47h-26q-31 0 -41 -36z" />
<glyph unicode="'" horiz-adv-x="268" d="M178 734q0 -80 -27 -256h-35q-26 176 -26 256q14 33 44 33t44 -33z" />
<glyph unicode="(" horiz-adv-x="545" d="M500 -146h-40q-80 41 -151 136q-99 130 -99 300q0 125 48 218t104 144t84 67l14 8h40q-28 -18 -66 -61.5t-64 -89.5t-47.5 -123t-21.5 -151q0 -136 38.5 -230t83.5 -146t66 -65z" />
<glyph unicode=")" horiz-adv-x="545" d="M45 -146l11 7q21 13 66 65t83.5 146t38.5 230q0 74 -21.5 151t-47.5 123t-64 89.5t-66 61.5h40l14 -8q28 -16 84 -67t104 -144t48 -218q0 -170 -99 -300q-71 -95 -151 -136h-40z" />
<glyph unicode="*" horiz-adv-x="451" d="M224 757q33 0 33 -47q0 -21 -4 -49l-4 -26q-2 -17 -3 -21l-2 -13l48 38q47 38 68 38t29 -16q4 -6 4 -14q0 -22 -22.5 -35.5t-60.5 -27.5l-45 -18l56 -22q30 -12 44 -21q28 -15 28 -38q0 -7 -6.5 -18.5t-26.5 -11.5t-68 38l-48 38l2 -15q0 -5 3 -20l6 -35q2 -20 2 -39.5 t-8.5 -33t-24.5 -13.5t-24.5 13.5t-8.5 34t4 48.5l4 26q2 17 3 21l2 13l-48 -38q-47 -38 -68 -38t-29 16q-4 6 -4 14q0 22 22.5 35.5t60.5 27.5l45 18l-56 22q-29 11 -45 21q-27 16 -27 38q0 7 6.5 18.5t22 11.5t31.5 -9.5t41 -28.5l48 -38l-2 15q0 5 -3 20l-6 35 q-2 20 -2 40.5t8.5 33t24.5 12.5z" />
<glyph unicode="+" horiz-adv-x="540" d="M490 317v-62h-189v-189h-62v189h-189v62h189v190h62v-190h189z" />
<glyph unicode="," horiz-adv-x="306" d="M142 -11h-6q-21 0 -43.5 17.5t-22.5 47t17.5 50.5t45.5 21t48 -17t22.5 -40t2.5 -44q0 -71 -64 -146h-47q50 34 50 85q0 13 -3 26z" />
<glyph unicode="-" horiz-adv-x="470" d="M410 317v-62h-350v62h350z" />
<glyph unicode="." horiz-adv-x="312" d="M91 59q0 27 19 46t46 19t46 -19t19 -46t-19 -46t-46 -19t-46 19t-19 46z" />
<glyph unicode="/" d="M515 800l-416 -920h-64l416 920h64z" />
<glyph unicode="0" d="M275 728q108 0 167.5 -98t59.5 -269q0 -124 -36.5 -213.5t-102.5 -129.5q-45 -27 -88 -27q-98 0 -162.5 97.5t-64.5 272.5q0 269 132 343q43 24 95 24zM275 41q51 0 91.5 88.5t40.5 212.5q0 337 -132 337q-57 0 -94.5 -82.5t-37.5 -213.5q0 -257 82 -324q22 -18 50 -18z " />
<glyph unicode="1" d="M235 707v10h87v-618q3 -17 15.5 -29.5t30.5 -15.5h73v-54h-332v54h79v1q18 2 30.5 14.5t15.5 29.5h1v442q-23 -11 -63 -11h-64v60l14 -1q42 0 69 21t35.5 54.5t8.5 42.5z" />
<glyph unicode="2" d="M279 720q192 0 192 -188q0 -65 -29 -105t-113.5 -102.5t-121.5 -111.5q-49 -66 -50 -130h216q24 0 53.5 18t47.5 37l17 18l-33 -157h-387v84q0 78 80 167q37 41 79 78q110 100 139 145q14 24 14 65.5t-39 71.5t-84 30t-91.5 -14t-78.5 -33l-10 -6l-12 51q17 20 85 51 t126 31z" />
<glyph unicode="3" d="M321 656q-21 15 -77 16h-2q-55 0 -134 -62l-29 40l29 19q102 67 163 67t104 -21.5t60.5 -60t17.5 -84t-38.5 -90t-119.5 -79.5q130 -4 177 -83q22 -37 22 -90q0 -84 -57.5 -138.5t-149.5 -83.5q-53 -17 -110 -17t-111 8l-17 59l18 -3l22 -3q22 -3 62.5 -3t73.5 6 q60 12 118 59t58 116q0 127 -161 127h-1q-9 1 -20.5 1t-37.5 -7l-48 -13l-8 58l41 5q21 3 50 17q146 76 146 164q0 47 -41 76z" />
<glyph unicode="4" horiz-adv-x="570" d="M543 178h-122v-88h1q3 -17 15.5 -29.5t30.5 -15.5h65v-45h-312v45h70v1q18 2 31 14.5t16 29.5v88h-311l305 545h89v-474h122v-71zM127 249h211v362z" />
<glyph unicode="5" horiz-adv-x="570" d="M44 53q63 -13 105.5 -13t52.5 2q116 18 172 116q22 39 22 87t-31 93q-21 30 -55.5 44.5t-68.5 14.5q-78 0 -123 -20l-20 -9l13 360h342v-83h-286l-8 -215q61 22 108.5 22t99 -18t77.5 -60q40 -62 40 -124v-4q0 -57 -24.5 -104t-52.5 -76q-80 -80 -247 -80q-50 0 -100 9z " />
<glyph unicode="6" horiz-adv-x="570" d="M420 686h-9q-119 0 -192 -101q-24 -33 -38 -79.5t-15 -70.5l-1 -28q17 30 49.5 52t77.5 22h3q91 0 150.5 -63.5t59.5 -171.5v-1q0 -164 -113 -233q-45 -27 -105 -27h-7q-59 0 -103 27.5t-70 76.5q-42 80 -42 202q0 39 4 81q11 108 37 167.5t84 117.5q38 38 115.5 66 t132.5 30zM410 235v17q0 180 -119 180h-4q-49 0 -85 -41.5t-39 -140.5v-19q0 -87 30.5 -139t86.5 -55h5q53 0 89 51t36 147z" />
<glyph unicode="7" horiz-adv-x="570" d="M168 -3q21 211 49 299q44 138 143 285q39 57 48 70h-336l39 83h387v-92q-26 -20 -70.5 -75t-86.5 -132q-88 -161 -88 -400q0 -19 1 -38h-86z" />
<glyph unicode="8" horiz-adv-x="570" d="M178 5.5q-56 25.5 -87.5 75t-31.5 109.5q0 76 71 142q37 35 77 55q-68 40 -95 83t-27 93q0 86 53.5 131t138 45t138 -51t53.5 -115q0 -86 -107 -166q68 -39 100 -77q50 -58 50 -146.5t-68 -146t-167 -57.5h-1q-41 0 -97 25.5zM382 573q0 57 -27.5 88.5t-76 31.5 t-78 -36.5t-29.5 -78.5t7 -52q20 -28 25 -41q6 -6 82 -46q3 -1 11 -1t36 20q50 35 50 115zM275 350q-13 4 -16 4l-5 1q-20 -20 -43 -35.5t-43 -53.5t-20 -68q0 -149 124 -161h15q47 0 90 34t43 109t-46 113t-99 57z" />
<glyph unicode="9" horiz-adv-x="570" d="M150 52h9q119 0 192 101q24 33 38 79.5t15 70.5l1 28q-17 -30 -49.5 -52t-77.5 -22h-3q-91 0 -150.5 63.5t-59.5 171.5v1q0 164 113 233q45 27 105 27h7q59 0 103 -27.5t70 -76.5q42 -80 42 -202q0 -39 -4 -81q-11 -108 -37 -167.5t-84 -117.5q-38 -38 -115.5 -66 t-132.5 -30zM160 503v-17q0 -180 119 -180h4q49 0 85 41.5t39 140.5v19q0 87 -30.5 139t-86.5 55h-5q-53 0 -89 -51t-36 -147z" />
<glyph unicode=":" horiz-adv-x="312" d="M91 387q0 27 19 46t46 19t46 -19t19 -46t-19 -46t-46 -19t-46 19t-19 46zM91 59q0 27 19 46t46 19t46 -19t19 -46t-19 -46t-46 -19t-46 19t-19 46z" />
<glyph unicode=";" horiz-adv-x="312" d="M162 -11h-6q-21 0 -43.5 17.5t-22.5 47t17.5 50.5t45.5 21t48 -17t22.5 -40t2.5 -44q0 -71 -64 -146h-47q50 34 50 85q0 13 -3 26zM91 387q0 27 19 46t46 19t46 -19t19 -46t-19 -46t-46 -19t-46 19t-19 46z" />
<glyph unicode="&#x3c;" horiz-adv-x="525" d="M35 294l455 276v-68l-353 -207l353 -208v-69z" />
<glyph unicode="=" horiz-adv-x="525" d="M465 409v-57h-405v57h405zM465 239v-57h-405v57h405z" />
<glyph unicode="&#x3e;" horiz-adv-x="525" d="M490 294l-455 -276v69l353 208l-353 207v68z" />
<glyph unicode="?" horiz-adv-x="463" d="M153 204l-3 92q1 87 28 104t62 39q63 40 84 120q4 14 4 31t-8 37q-13 34 -51 55.5t-88 21.5q-76 0 -134 -52l-2 80q53 25 132 25q179 0 233 -116q17 -35 17 -62q0 -116 -105 -170q-27 -15 -49.5 -25.5t-38.5 -32.5q-32 -43 -32 -147h-49zM116 59q0 27 19 46t46 19t46 -19 t19 -46t-19 -46t-46 -19t-46 19t-19 46z" />
<glyph unicode="@" horiz-adv-x="814" d="M440 498q-36 0 -74 -32.5t-66 -88.5q-11 -32 -11 -68.5t11 -60.5q8 -11 22 -11q86 0 149 107l8 19q23 62 23 79.5t-9 31t-26.5 19t-26.5 5.5zM625 137l29 -29q-30 -30 -53 -47q-86 -61 -224 -61q-86 0 -169 37q-47 21 -94 74q-89 91 -89 210q0 30 5 60q30 156 149 254 t280 98q174 0 282 -159q40 -56 40 -119q0 -31 -6 -65q-29 -137 -136 -199q-32 -16 -68 -16q-82 0 -96 69q-1 5 -2 9q-74 -65 -171 -65q-44 0 -68 24q-37 37 -37 97t23 97q38 65 98 103t122 38t107 -42q26 -24 26 -57t-13 -65l-20 -52q-12 -30 -12 -58t8 -36.5t18.5 -9.5 t21.5 -1q98 0 134 167q3 14 3 32v25q-1 88 -47 137q-94 97 -207 99q-127 -2 -234 -84q-93 -79 -122 -218q-5 -24 -5 -63q0 -82 29 -134q76 -136 275 -137q161 0 223 87z" />
<glyph unicode="A" horiz-adv-x="849" d="M754 45h55v-45h-298v45h60q21 0 29.5 12t8.5 21v13l-64 177h-280l-62 -177v-12q0 -10 10 -20.5t28 -13.5h60v-45h-261v45h50q18 3 34 16q15 13 21 30l232 649h90l232 -649q14 -40 55 -46zM283 315h246l-123 345z" />
<glyph unicode="B" horiz-adv-x="726" d="M672 218q0 -218 -294 -218h-338v45h71q33 6 41 29v571q-3 17 -15.5 29.5t-31.5 15.5h-65v45h338q110 0 171.5 -44t61.5 -137q0 -126 -108 -159q79 -12 124 -55t45 -122zM437 429q68 17 68 124q0 121 -93 133q-33 4 -69 4t-60 -2q-17 -3 -36 -38v-234h89q50 0 101 13z M513 344q-34 26 -111 26h-155v-279q5 -29 31 -43h59q104 0 149 19q76 32 76 134.5t-49 142.5z" />
<glyph unicode="C" horiz-adv-x="741" d="M406 50q170 0 246 93l20 27l29 -24q-39 -51 -54.5 -64.5t-33 -26.5t-34 -21t-23.5 -12l-15 -6q-72 -27 -151 -27t-141.5 29t-107.5 82t-73 131t-28 151q0 184 156 303q86 64 184 64t160 -24q5 -2 7.5 -2t2.5 4t-6 13h50l97 -148l-28 -23l-21 27l-40 38q-45 43 -91.5 52 t-86.5 9t-77 -12.5t-73.5 -39.5t-66.5 -63t-48 -85t-18 -101q0 -143 77.5 -243.5t187.5 -100.5z" />
<glyph unicode="D" horiz-adv-x="785" d="M467 735q66 0 129 -54.5t101 -140.5t38 -171.5t-37.5 -170t-105 -141.5t-144.5 -57h-408v45h71q28 4 41 29v571q-3 17 -15.5 29.5t-31.5 15.5h-65v45h427zM407 50q63 0 114 47t77.5 118.5t26.5 157t-27 158t-78.5 115.5t-118.5 43h-113q-27 -4 -41 -30v-568q5 -29 31 -41 h129z" />
<glyph unicode="E" horiz-adv-x="710" d="M461 416q50 16 50 66v45h45v-268h-45v51q0 39 -50 60h-214v-279q5 -29 31 -43l285 -1q52 7 52 56v55h45v-158h-620v45h71q28 4 41 29v571q-3 17 -15.5 29.5t-31.5 15.5h-65v45h604v-159h-45v61q-4 28 -50 51h-266q-17 -3 -36 -38v-234h214z" />
<glyph unicode="F" horiz-adv-x="710" d="M431 416q50 16 50 66v45h45v-268h-45v51q0 39 -50 60h-184v-279q5 -29 31 -43h88v-48h-326v45h71q28 4 41 29v571q-3 17 -15.5 29.5t-31.5 15.5h-65v45h604v-159h-45v61q-4 28 -50 51h-266q-17 -3 -36 -38v-234h184z" />
<glyph unicode="G" horiz-adv-x="790" d="M571 725q5 -2 7.5 -2t2.5 4t-6 13h53l102 -148l-30 -23l-22 27l-42 38q-47 43 -96 52t-91 9t-81 -12.5t-77.5 -39.5t-70 -63t-50.5 -85t-19 -101q0 -148 76.5 -245.5t196.5 -97.5t171 42v165q-9 51 -47 51h-64v46h290v-46h-61q-38 0 -38 -51v-179q-28 -31 -55 -46 t-71 -29t-132 -14t-153.5 28.5t-112.5 81.5t-76.5 131t-29.5 151q0 186 164 303q90 64 196 64t166 -24z" />
<glyph unicode="H" horiz-adv-x="900" d="M257 75q7 -30 46 -30h65v-45h-318v45h71q27 4 41 30v577q-4 23 -47 30h-65v45h318v-45h-70q-27 -4 -41 -30v-259h377v259q-4 23 -47 30h-65v45h318v-45h-70q-27 -4 -41 -30v-577q7 -30 46 -30h65v-45h-318v45h71q27 4 41 30v271h-377v-271z" />
<glyph unicode="I" horiz-adv-x="398" d="M247 75q7 -30 46 -30h65v-45h-318v45l71 1q28 4 41 29v577q-4 23 -47 30h-65v45h318v-45h-70q-27 -4 -41 -30v-577z" />
<glyph unicode="J" horiz-adv-x="398" d="M247 135q0 -205 -225 -275q-20 6 -20 15.5t20 22.5q130 83 130 237v517q-4 23 -47 30h-65v45h318v-45h-70q-27 -4 -41 -30v-517z" />
<glyph unicode="K" horiz-adv-x="880" d="M247 75q7 -30 46 -30h65v-45h-318v45h71q28 4 41 29v578q-4 23 -47 30h-65v45h318v-45h-70q-27 -4 -41 -30v-292l321 272q4 11 4 19q0 22 -34 31h-42v45h280v-46h-36q-67 -18 -122 -65l-231 -198l336 -341q31 -31 84 -31h33v-46h-321v45l46 1q35 11 35 19t-15 35 l-259 265l-79 -68v-222z" />
<glyph unicode="L" horiz-adv-x="700" d="M247 91q5 -29 31 -43l227 -1q110 0 110 98v34h45v-179h-620v45h71q28 4 41 29v571q-3 17 -15.5 29.5t-31.5 15.5h-65v45h325v-47h-82q-17 -3 -36 -38v-559z" />
<glyph unicode="M" horiz-adv-x="1078" d="M223 105q0 -60 85 -60h26v-45h-284v45l35 1q77 2 77 59v527q0 43 -47 50h-65v45h172l317 -563l284 563h205v-45h-70q-40 -7 -40 -50v-527q0 -60 84 -60h26v-45h-318v45l35 1q77 2 77 59v497l-296 -580l-303 531v-448z" />
<glyph unicode="N" horiz-adv-x="941" d="M253 112q0 -67 89 -67h22v-45h-294v45l25 1q87 3 87 66v540q-4 23 -47 30h-65v45h185l434 -513v398q0 70 -84 70h-28v45h294v-46h-26q-85 0 -85 -69v-642l-507 601v-459z" />
<glyph unicode="O" horiz-adv-x="814" d="M82 170q-52 86 -52 190t52 191.5t137 140.5t188 53t187.5 -50t137 -137.5t52.5 -196t-52.5 -194.5t-137 -136.5t-187.5 -50.5t-188 52t-137 138zM413 692h-33q-85 0 -158 -98t-73 -238t78 -231t187.5 -91t180 92.5t70.5 238.5t-77.5 236.5t-174.5 90.5z" />
<glyph unicode="P" horiz-adv-x="686" d="M530 524q0 150 -93 162q-33 4 -81.5 4t-72.5 -2q-17 -3 -36 -38v-276h134q149 0 149 150zM247 76q7 -30 46 -30h65v-45h-318v45l71 1q28 4 41 29v569q-3 17 -15.5 29.5t-31.5 15.5h-65v46l363 -1q110 0 171.5 -60t61.5 -153q0 -194 -246 -194h-143v-252z" />
<glyph unicode="Q" horiz-adv-x="814" d="M412 692h-13q-108 -4 -179 -100t-71 -224q0 -153 78.5 -243.5t186 -90.5t179.5 92.5t72 225.5q0 158 -78 249t-175 91zM82 170q-52 86 -52 190t52 191.5t137 140.5t188 53t187.5 -50t137 -137.5t52.5 -196t-52.5 -194.5t-137.5 -137q-48 -28 -102 -41q54 -91 274 -119 q51 -6 51 -15.5t-51 -22.5q-239 18 -374 122q-26 17 -53 32q-64 12 -120 46q-85 52 -137 138z" />
<glyph unicode="R" horiz-adv-x="821" d="M725 45h56v-45h-318v45h70q21 0 21 10q0 7 -8 17l-204 257h-89v-255q0 -29 45 -29h66v-45h-324v45h72q15 0 28.5 8.5t13.5 20.5v572q0 17 -13.5 31t-34.5 14h-66v45h363q109 0 171.5 -60.5t62.5 -152.5q0 -171 -192 -191l206 -260q23 -27 74 -27zM253 651v-277h129 q148 0 148 150.5t-93 162.5q-31 4 -95 4t-76.5 -11.5t-12.5 -28.5z" />
<glyph unicode="S" horiz-adv-x="637" d="M428 707q3 2 -3 17t-8 25h50l97 -168l-28 -23l-21 27l-40 38q-33 33 -64.5 47t-94.5 14t-108 -44t-45 -90t30 -70t72.5 -42t63.5 -23q112 -27 162 -61q96 -64 96 -165q0 -55 -28.5 -97.5t-56.5 -60.5q-70 -46 -188 -46q-71 0 -130 34l-15 9l2 -18q3 -10 6 -19h-50 l-97 168l28 23l21 -27l40 -38q73 -75 161 -75h6q91 3 144.5 49t53.5 96.5t-20 70.5q-43 43 -73 52q-147 44 -229 84q-96 48 -96 146v4q0 49 22.5 89t58.5 62q73 44 146 44t135 -32z" />
<glyph unicode="T" horiz-adv-x="773" d="M431 644v-558q18 -36 36 -38h111v-48h-384v46h95q18 2 30 15t16 29v570q-10 22 -31 28q-220 0 -220 -98v-34h-44v180h693v-180h-44v34q0 98 -110 98h-118q-26 -14 -30 -44z" />
<glyph unicode="U" horiz-adv-x="859" d="M95 695h-55v45h308v-45h-60q-21 0 -29.5 -11.5t-8.5 -21.5v-382q0 -221 200 -221q196 0 205 221v381q0 10 -9.5 20.5t-27.5 13.5h-60v45h261v-45h-50q-14 -2 -34.5 -16.5t-20.5 -29.5v-369q0 -280 -267 -280q-297 0 -297 280v369q0 38 -55 46z" />
<glyph unicode="V" horiz-adv-x="859" d="M95 695h-55v45h308v-45h-60q-21 0 -29.5 -11.5t-8.5 -21.5v-13l203 -569l203 569v12q0 10 -10 20.5t-28 13.5h-60v45h261v-45h-50q-18 -3 -33.5 -16t-21.5 -30l-232 -649h-100l-232 649q-14 40 -55 46z" />
<glyph unicode="W" horiz-adv-x="1170" d="M95 695h-55v45h308v-45h-60q-21 0 -29.5 -11.5t-8.5 -21.5v-13l183 -569l139 418l-41 151q-11 41 -45 46h-43v45h274v-45h-48q-21 0 -29.5 -11.5t-8.5 -21.5v-13l169 -569l177 569v12q0 10 -10 20.5t-28 13.5h-60v45h261v-45h-50q-18 -3 -34 -16.5t-21 -29.5l-206 -649 h-100l-130 399l-137 -399h-100l-212 649q-13 40 -55 46z" />
<glyph unicode="X" horiz-adv-x="940" d="M248 75q8 -30 43 -30h56v-45h-307v47l93 1q34 4 48 27l232 294l-217 283q-14 25 -62 29l-77 1v45h355v-45h-52q-39 -7 -44 -30l158 -206l162 206q-5 23 -45 30h-54v45h306v-47h-93q-32 -4 -47 -28l-196 -249l252 -328q27 -24 65 -29l76 -1v-45h-359v45h54q36 0 44 30 l-193 251z" />
<glyph unicode="Y" horiz-adv-x="866" d="M489 75q7 -30 46 -30h65v-45h-318v45l71 1q28 4 41 29v247l-215 330q-14 25 -62 29l-77 1v45h355v-45h-52q-39 -7 -44 -30l158 -256l162 256q-5 23 -45 30h-54v45h306v-47h-93q-32 -4 -47 -27l-197 -301v-277z" />
<glyph unicode="Z" horiz-adv-x="700" d="M201 91q-7 -13 -7 -22q0 -21 38 -21h274q109 0 109 97v34h45v-179h-620v48q29 4 41 27l408 562q-6 34 -39 43h-220q-100 0 -100 -98v-34h-45v179h562v-47h-4q-17 -3 -36 -38z" />
<glyph unicode="[" horiz-adv-x="399" d="M80 -200v931h269v-44h-177v-843h177v-44h-269z" />
<glyph unicode="\" d="M35 800h64l416 -920h-64z" />
<glyph unicode="]" horiz-adv-x="399" d="M319 -200h-269v44h177v843h-177v44h269v-931z" />
<glyph unicode="^" horiz-adv-x="500" d="M250 642l-171 -132h-32l173 222h61l172 -222l-30 -3z" />
<glyph unicode="_" horiz-adv-x="500" d="M468 45v-45h-436v45h436z" />
<glyph unicode="`" horiz-adv-x="268" d="M126 742q40 -69 104 -235l-30 -17q-110 139 -150 208q-1 6 -1 11q0 27 22 40q11 6 24.5 6t30.5 -13z" />
<glyph unicode="a" horiz-adv-x="559" d="M529 53q-16 -66 -69.5 -66t-75.5 71q-55 -72 -126 -72q-86 0 -147 42.5t-61 106.5v3q0 112 126 171q70 33 111 33t97 -24l1 44q0 55 -18 73q-39 36 -103 36t-179 -72l-2 78q96 48 196 48h5q61 0 122 -44q32 -23 51.5 -61t19.5 -85v-269q6 -7 15 -7q2 0 37 39v-45z M384 239q-8 45 -73 45h-6q-50 0 -103 -45t-53 -96q0 -7 1 -14q10 -82 111 -82q52 0 77 25t32 42t10.5 43t3.5 34v48z" />
<glyph unicode="b" horiz-adv-x="568" d="M390 105q38 55 39 146q-2 94 -42 146t-103 52q-131 -1 -140 -167v-54q15 -178 140 -178q68 0 106 55zM144 439q59 74 157 74t162.5 -69t64.5 -189.5t-64.5 -195t-162 -74.5t-157.5 78v-66h-84v643h-75v20l119 80h40v-301z" />
<glyph unicode="c" horiz-adv-x="491" d="M445 69v-52q-60 -28 -112 -28h-13q-117 0 -196 75.5t-79 185.5t85.5 183t193.5 73q81 0 127 -31l-26 -72q-45 39 -93 39q-74 0 -131 -57t-57 -137.5t61 -141.5t145 -61q52 0 95 24z" />
<glyph unicode="d" horiz-adv-x="568" d="M40 254.5q0 120.5 64.5 189.5t162.5 69t157 -74v201h-75v20l119 80h40v-674q6 -7 15 -7q6 0 37 39v-45q-16 -66 -65 -66t-71 71l1 3l-1 2q-60 -78 -157.5 -78t-162 74.5t-64.5 195zM178 105q38 -55 106 -55q125 0 140 178v54q-9 166 -140 167q-63 0 -103 -52t-42 -146 q1 -91 39 -146z" />
<glyph unicode="e" horiz-adv-x="561" d="M496 34q-88 -49 -190 -49h-4q-121 0 -190.5 70t-69.5 194t68 190q75 71 189.5 71t168 -72t53.5 -182v-24h-384q6 -78 53 -135q50 -58 140 -58t170 59zM439 284q-3 164 -134 164h-2q-143 0 -166 -164h302z" />
<glyph unicode="f" horiz-adv-x="420" d="M450 683l-18 5q-18 5 -63.5 5t-79.5 -29t-34 -82v-114h147v-43h-147v-350q7 -30 46 -30h62v-45h-306v45l68 1q28 4 41 29v350h-136v43h136v77q0 85 56 140t129.5 55t98.5 -7v-50z" />
<glyph unicode="g" horiz-adv-x="570" d="M348 -6l-142 -7q-35 0 -59 4q-34 -13 -34 -85q0 -14 29 -45t154 -31q64 0 92 9q75 27 75 79t-49 64q-31 12 -66 12zM123 192q-83 59 -83 148q0 73 66 125.5t138.5 52.5t111.5 -17h161v-43h-100q49 -50 49 -121t-57 -123.5t-156 -52.5q-60 0 -94 13q-35 -15 -35 -60 q0 -13 11 -26q16 -16 152 -16l91 1q95 0 136 -66q16 -25 16 -55q0 -140 -143 -161q-47 -7 -138 -7t-136 16q-60 20 -76 91q-2 9 -2 23.5t16.5 44.5t55.5 51q-51 24 -51 73q0 85 67 109zM262 474q-54 0 -94 -39.5t-40 -95t40 -95t94 -39.5t84.5 39.5t30.5 95t-30.5 95 t-84.5 39.5z" />
<glyph unicode="h" horiz-adv-x="603" d="M188 406q47 97 134.5 97t139.5 -56.5t52 -155.5v-216q7 -30 26 -30h43v-45h-226v45l48 1q3 4 21 29v199q0 82 -28 130t-76.5 48t-91 -45.5t-42.5 -109.5v-222q7 -30 26 -30h43v-45h-221v45l48 1q3 4 21 29v565h-75v20l119 80h39v-334z" />
<glyph unicode="i" horiz-adv-x="295" d="M86 674q0 27 19.5 46.5t46.5 19.5t46.5 -19.5t19.5 -46.5t-19.5 -46.5t-46.5 -19.5t-46.5 19.5t-19.5 46.5zM192 75q7 -30 36 -30h42v-45h-245v45l53 1q20 4 31 29v345h-75v20l119 80h39v-445z" />
<glyph unicode="j" horiz-adv-x="245" d="M53 674q0 27 19.5 46.5t46.5 19.5t46.5 -19.5t19.5 -46.5t-19.5 -46.5t-46.5 -19.5t-46.5 19.5t-19.5 46.5zM162 520v-532q0 -72 -48 -124q-39 -42 -151 -42q-24 0 -52 2v19q0 14 -11 32q132 0 155.5 25t23.5 60v460h-75v20l119 80h39z" />
<glyph unicode="k" horiz-adv-x="595" d="M178 75q7 -30 26 -30h43v-45h-221v45l48 1q3 4 21 29v565h-75v20l119 80h39v-473l205 190h-66v43h207v-43h-71l-138 -128l177 -254q17 -30 40 -30h46v-45h-238v45l44 1q11 10 6 24l-139 199l-73 -68v-126z" />
<glyph unicode="l" horiz-adv-x="267" d="M178 740v-665q7 -30 26 -30h53v-45h-241v45l58 1q3 4 21 29v565h-75v20l119 80h39z" />
<glyph unicode="m" horiz-adv-x="882" d="M461 421q46 90 139.5 90t140.5 -58t47 -143v-235q7 -30 36 -30h38v-45h-231v45l43 1h1q12 0 30 29v235q0 58 -25.5 102t-75.5 44t-84 -32t-34 -76v-273q7 -30 36 -30h38v-45h-231v45l43 1h1q12 0 30 29v235q0 58 -24.5 102t-75 44t-85 -32t-34.5 -76v-273q7 -30 36 -30 h38v-45h-231v45l43 1q20 4 31 29v345h-75v20l119 80h39v-71q48 61 112 62h3q114 0 162 -90z" />
<glyph unicode="n" horiz-adv-x="644" d="M184 416q37 95 163 95q193 -1 193 -247v-189q7 -30 36 -30h38v-45h-231v45l43 1q20 4 31 29v169q0 212 -117 212q-156 0 -156 -203v-178q7 -30 36 -30h38v-45h-231v45l43 1q20 4 31 29v345h-75v20l119 80h39v-104z" />
<glyph unicode="o" d="M100 59q-70 78 -70 187t70 189t171.5 80t175 -80t73.5 -189t-73.5 -187t-175 -78t-171.5 78zM373.5 395.5q-47.5 62.5 -108.5 62.5t-101.5 -63.5t-40.5 -150t47.5 -147t107 -60.5t101.5 62t42 148t-47.5 148.5z" />
<glyph unicode="p" horiz-adv-x="585" d="M186 447q55 67 143 68h3q104 0 168.5 -74.5t64.5 -195t-65.5 -190.5t-167.5 -70h-3q-87 1 -144 66v-146q7 -30 36 -30h48v-45h-251v45l53 1q20 4 31 29v503h-75v20l119 80h39v-1l1 1v-61zM422 395q-36 55 -101 55q-119 0 -133 -178v-54q9 -166 133 -167q60 0 98 52 t40 146q-1 91 -37 146z" />
<glyph unicode="q" horiz-adv-x="585" d="M397 447v61l1 -1v1h83v-603q11 -25 31 -29l53 -1v-45h-251v45h48q29 0 36 30v146q-57 -65 -144 -66h-3q-102 0 -167.5 70t-65.5 190.5t64.5 195t168.5 74.5h3q88 -1 143 -68zM161 395q-36 -55 -37 -146q2 -94 40 -146t98 -52q124 1 133 167v54q-14 178 -133 178 q-65 0 -101 -55z" />
<glyph unicode="r" horiz-adv-x="439" d="M380 515h2q28 0 47 -2q-15 -58 -15 -79q-20 3 -47 3q-79 0 -130.5 -68.5t-51.5 -136.5v-157q7 -30 36 -30h48v-45h-251v45l53 1q20 4 31 29v326h-75v20l119 80h39v-129q59 143 195 143z" />
<glyph unicode="s" horiz-adv-x="510" d="M263 46q116 0 116 73q0 37 -17 47q-45 27 -63 27q-1 0 -64 16.5t-101 34t-60.5 48t-22.5 70t21 69t53 46.5q64 32 107 32t87 -19q-1 4 -1 13.5t-6 18.5h50l86 -151l-28 -23l-21 27q-94 75 -146.5 75t-85.5 -20.5t-33 -39t22.5 -47.5t105 -48t119.5 -37q79 -40 79 -122v-3 q0 -62 -56.5 -102t-146.5 -40q-45 0 -100 26l1 -2l2 -3h-1q1 -3 1 -13.5t6 -19.5h-50l-86 151l28 23l21 -27l67 -47q67 -33 117 -33z" />
<glyph unicode="t" horiz-adv-x="369" d="M284 -9q-173 0 -173 139v294h-91v48h38q74 4 84 124l54 62v-186h118v-48h-118v-259q0 -77 23.5 -99.5t67.5 -22.5t67 17v-63q-15 -6 -40 -6h-30z" />
<glyph unicode="u" horiz-adv-x="552" d="M321 514h159v-448q6 -7 15 -7q6 0 37 39v-45q-16 -66 -65 -66t-71 71v22q-37 -95 -164 -95q-167 1 -167 247v237h-75v45h158v-262q2 -210 92 -210q156 0 156 203v224h-75v45z" />
<glyph unicode="v" horiz-adv-x="613" d="M60 457h-40v45h238v-45h-45v-1q-21 0 -22 -11.5t-1 -20.5v-13l136 -336l134 336h-1v12q0 9 -2 19.5t-20 13.5v1h-45v45h201v-45h-35q-2 -2 -17.5 -15t-22.5 -31l-163 -416h-90l-165 416q-17 43 -40 46z" />
<glyph unicode="w" horiz-adv-x="780" d="M50 457h-40v45h238v-45h-45l-15 -13q-8 -11 -8 -20v-13l92 -336l100 271l-22 65q-15 44 -30 46h-28v45h204v-45h-33l-15 -13q-8 -11 -8 -20v-13l107 -336l90 336h-1v12q0 9 -2 19l-20 15h-45v45h201v-45h-35q-30 -5 -40 -46l-119 -416h-90l-91 273l-94 -273h-90l-121 416 q-12 42 -40 46z" />
<glyph unicode="x" horiz-adv-x="650" d="M205 75q8 -30 43 -30h35v-45h-263v47l70 1q34 4 48 27l134 167l-143 183q-15 25 -52 30h-47v45h285v-45h-32q-28 -7 -34 -30l84 -107l86 107q-7 23 -25 30h-34v45h226v-47h-53v-1q-33 -4 -47 -27l-120 -149l158 -201q28 -24 55 -29l51 -1v-45h-293v45h33q26 0 34 30 l-98 125z" />
<glyph unicode="y" horiz-adv-x="630" d="M192 429q0 -6 1 -18l148 -307l134 307v12q0 9 -2 19.5t-20 13.5v1h-45v45h201v-45h-35q-2 -2 -17.5 -15t-22.5 -31q-207 -467 -227 -505q-51 -96 -173 -96h-66v62q65 -6 70 -9q96 0 135 82q21 44 21 48.5t-1 6.5l-208 431q-13 24 -30 26h-40v45h243v-45h-42v-1 q-24 -1 -24 -27z" />
<glyph unicode="z" horiz-adv-x="549" d="M201 91q-7 -13 -7 -22q0 -21 38 -21h143q89 0 89 97v34h45v-179h-469v48q29 4 41 27l270 335h-1q-3 17 -14 28t-24 15h-82q-100 0 -100 -98v-34h-45v179h424v-47h-4q-17 -3 -36 -38z" />
<glyph unicode="{" horiz-adv-x="448" d="M151 265q114 -48 114 -137q0 -38 -16.5 -89t-16.5 -78.5t8 -39.5q49 -78 109 -78h9l50 1v-43l-50 -1h-9q-130 0 -177 74q-23 36 -23 83t17 98.5t17 79.5q0 63 -41 83q-7 3 -51 32h-1l1 36l14 7q44 22 65 55q12 18 12 48.5t-16.5 82t-16.5 98t23.5 81.5t66.5 54.5 t121 19.5h48v-54l-48 1h-9q-54 0 -78.5 -27.5t-32.5 -40t-8 -40.5t17 -79.5t17 -87.5q0 -87 -115 -139z" />
<glyph unicode="|" horiz-adv-x="194" d="M70 800h54v-930h-54v930z" />
<glyph unicode="}" horiz-adv-x="448" d="M297 265q-115 52 -115 139q0 36 17 87.5t17 79.5t-8 40.5t-32.5 40t-78.5 27.5h-9l-48 -1v54h48q78 0 121 -19.5t66.5 -54.5t23.5 -81.5t-16.5 -98t-16.5 -82t12 -48.5q21 -33 65 -55l14 -7l1 -36h-1q-44 -29 -51 -32q-41 -20 -41 -83q0 -28 17 -79.5t17 -98.5t-23 -83 q-47 -74 -177 -74h-9l-50 1v43l50 -1h9q60 0 109 78q8 12 8 39.5t-16.5 78.5t-16.5 89q0 89 114 137z" />
<glyph unicode="~" horiz-adv-x="484" d="M451 669q-53 -126 -129 -126q-44 0 -89 48q-24 25 -30.5 29.5t-7.5 5.5q-23 18 -42 18h-7q-40 0 -90 -49h-22q31 73 73 106q27 21 57 21q43 0 89 -48q23 -25 30 -30t7 -6q24 -18 42 -18h7q41 0 91 49h21z" />
<glyph unicode="&#xa1;" horiz-adv-x="363" d="M124 -168q0 200 36 528h42q35 -348 35 -528q-29 -31 -57 -31t-56 31zM246 504q0 -27 -19 -46t-46 -19t-46 19t-19 46t19 46t46 19t46 -19t19 -46z" />
<glyph unicode="&#xa2;" horiz-adv-x="491" d="M279 58v376q-42 -13 -78 -49q-57 -57 -57 -137t56 -137q37 -37 79 -53zM445 69v-52q-59 -28 -112 -28v-119h-54v124q-96 15 -155 70q-79 76 -79 186t85 183q68 57 149 70v166h54v-163q75 -2 118 -31l-26 -72q-45 39 -92 39v-396q9 -1 17 -1q52 0 95 24z" />
<glyph unicode="&#xa3;" horiz-adv-x="544" d="M446 182l49 -4q-4 -86 -20.5 -116.5t-53.5 -51.5t-83 -21h-10q-29 0 -88 41q-29 20 -56.5 20t-45.5 -7q-31 -13 -48 -54h-33v91q5 -1 9.5 -1t9.5 1q74 65 77 134q1 27 1 68t-6 65h-108v46h96q-22 61 -32.5 111t-10.5 69q0 65 43 108q19 19 56 29.5t50 10.5t17 -1 q131 -16 175 -94l-24 -27q-68 59 -133 59q-9 0 -18 -2q-73 -9 -74 -71v-6q0 -79 30 -186h165v-46h-152q5 -24 5 -67.5t-23 -93t-44 -78.5q26 28 44.5 28t31.5 -12q96 -77 103 -81.5t27 -1.5q74 28 74 127v14z" />
<glyph unicode="&#xa4;" horiz-adv-x="637" d="M321.5 508q-64.5 0 -110 -45.5t-45.5 -110t45.5 -110t110 -45.5t110.5 45.5t46 109.5t-46 110t-110.5 46zM136 225q-40 57 -40 127.5t38 124.5l-82 82l58 58l81 -81q57 42 130 42t129 -40l78 79l58 -58l-79 -78q40 -56 40 -129t-42 -130l81 -81l-58 -58l-82 82 q-54 -38 -124.5 -38t-127.5 40l-84 -84l-58 58z" />
<glyph unicode="&#xa5;" horiz-adv-x="866" d="M489 75q7 -30 46 -30h65v-45h-318v45l71 1q28 4 41 29v126h-201v45h201v76l-9 14h-192v45h163l-177 271q-14 25 -62 29l-77 1v45h355v-45h-52q-39 -7 -44 -30l158 -256l162 256q-5 23 -45 30h-54v45h306v-47h-93v-1q-33 -4 -47 -27l-178 -271h181v-45h-200v-90h200v-45 h-200v-126z" />
<glyph unicode="&#xa6;" horiz-adv-x="193" d="M65 265h64v-395h-64v395zM65 800h64v-395h-64v395z" />
<glyph unicode="&#xa7;" horiz-adv-x="534" d="M309 379q-23 10 -62.5 10t-71.5 -40t-32 -92.5t83 -88.5q23 -10 62.5 -10t72 40.5t32.5 85.5q0 58 -84 95zM237 -109q166 0 166 99v5q0 30 -76 65q-40 18 -54.5 22.5t-56.5 22.5t-66 36l-36 27q-69 52 -69 100.5t38 94.5t99 62q-142 47 -142 145q0 54 36 90q63 64 178 64 h5q119 -2 211 -68l-41 -48q-69 60 -146 60q-151 0 -151 -102q0 -44 74 -78l144 -62q140 -66 140 -140q0 -52 -34.5 -98t-100.5 -65q140 -45 140 -131v-2q0 -56 -35 -92q-64 -66 -193.5 -66t-224.5 62l28 52q60 -55 164 -55h3z" />
<glyph unicode="&#xa8;" horiz-adv-x="401" d="M56 673q0 22 14.5 37.5t35.5 15.5t35.5 -15.5t14.5 -37.5t-14.5 -37.5t-35.5 -15.5t-35.5 15.5t-14.5 37.5zM246 673q0 22 15 37.5t36 15.5t35 -15.5t14 -37.5t-14 -37.5t-35 -15.5t-36 15.5t-15 37.5z" />
<glyph unicode="&#xa9;" horiz-adv-x="747" d="M85 362q0 -120 84.5 -204.5t204.5 -84.5t204.5 85t84.5 204h1q-1 120 -85.5 205t-204.5 85t-204.5 -85t-84.5 -205zM35 362.5q0 92.5 45.5 170.5t123.5 123.5t170 45.5t170 -45.5t123.5 -123.5t45.5 -170.5t-45.5 -170.5t-123.5 -123.5t-170 -45.5t-170 45.5 t-123.5 123.5t-45.5 170.5zM427 223q36 0 74 21v-48q-50 -23 -89 -23h-7q-93 5 -149.5 59t-56.5 135q0 1 0.5 42.5t64.5 96t144 54.5q60 0 99 -25l-23 -65q-36 33 -70 33q-52 0 -92 -40t-40 -96.5t39.5 -96.5t67.5 -43.5t38 -3.5z" />
<glyph unicode="&#xaa;" horiz-adv-x="379" d="M38 315h286v-55h-286v55zM239 547q-4 21 -41 21t-66 -24.5t-29 -50.5q1 -52 61 -52q34 0 49.5 13.5t20.5 26.5t5 38v28zM60 681q62 30 112.5 30t90.5 -27.5t40 -87.5v-147q2 -1 5 0.5t16 18.5l9 11v-40q-10 -42 -42.5 -42t-48.5 35q-32 -36 -82.5 -36t-87 25.5 t-36.5 66.5q0 68 76 104q43 20 69.5 20t57.5 -14l1 14q0 30 -8 38q-21 20 -59.5 20t-110.5 -46z" />
<glyph unicode="&#xab;" horiz-adv-x="584" d="M55 294l210 184h47l-149 -183l149 -183h-47zM263 294l210 184h47l-149 -183l149 -183h-47z" />
<glyph unicode="&#xac;" horiz-adv-x="529" d="M490 139h-62v194h-388v62h450v-256z" />
<glyph unicode="&#xad;" horiz-adv-x="379" d="M340 327v-57h-300v57h300z" />
<glyph unicode="&#xae;" horiz-adv-x="747" d="M335 521v-139h60q70 0 70 71.5t-42 76.5q-21 3 -48 3t-33 -2.5t-7 -9.5zM35 362.5q0 92.5 45.5 170.5t123.5 123.5t170 45.5t170 -45.5t123.5 -123.5t45.5 -170.5t-45.5 -170.5t-123.5 -123.5t-170 -45.5t-170 45.5t-123.5 123.5t-45.5 170.5zM85 362q0 -120 84.5 -204.5 t204.5 -84.5t205 86h-150v44h46l-107 134h-33v-127q0 -6 15 -7h46v-44h-196v44h49q13 0 13 7v308q0 5 -4.5 10t-11.5 5h-46v44h206q62 0 99 -36t37 -89q0 -93 -94 -111l101 -127q9 -11 31 -11h36q47 70 47 159h1q-1 120 -85.5 205t-204.5 85t-204.5 -85t-84.5 -205z" />
<glyph unicode="&#xaf;" horiz-adv-x="483" d="M387 760v-52h-290v52h290z" />
<glyph unicode="&#xb0;" horiz-adv-x="361" d="M80 669.5q0 42.5 29 71.5t72 29t72 -29t29 -71.5t-29 -72t-72 -29.5t-72 29.5t-29 72zM122 671q0 -24 17 -41.5t41 -17.5t41 17.5t17 41.5t-17 41t-41 17t-41 -17t-17 -41z" />
<glyph unicode="&#xb1;" horiz-adv-x="540" d="M495 477v-61h-194v-179h-61v179h-195v61h195v181h61v-181h194zM495 151v-62h-450v62h450z" />
<glyph unicode="&#xb2;" horiz-adv-x="349" d="M156 715q106 0 106 -101q0 -38 -16 -60.5t-58.5 -54t-60 -55t-21.5 -48.5h97q22 0 44 25l32 36l-25 -123h-212v52q0 43 43 91q15 17 54.5 52t49 50.5t9.5 35.5t-16 32.5t-42 12.5t-73 -28l-17 -10l-10 44q13 16 49 32.5t67 16.5z" />
<glyph unicode="&#xb3;" horiz-adv-x="357" d="M40 372q67 -7 74 -7t30 4.5t49.5 27.5t26.5 52q0 57 -70 57q-16 0 -27 -3l-35 -10l-7 44l30 5q6 1 23 7q67 34 67 76q0 21 -17 33q-8 6 -33 6t-69 -35l-27 33l23 16q51 36 84 36h3l17 -1q19 -1 42 -12.5t32.5 -33.5t9.5 -47.5t-17 -45.5t-38 -32q76 -19 76 -93 q0 -46 -33 -77t-69 -41.5t-66 -10.5t-64 5z" />
<glyph unicode="&#xb4;" horiz-adv-x="270" d="M151 746q29 17 48.5 17t30 -14t10.5 -29t-13 -32l-159 -104h-38z" />
<glyph unicode="&#xb5;" horiz-adv-x="538" d="M133 -170h-83v669h89v-242q0 -104 22 -159q27 -47 79 -47q146 0 146 213v235h85v-421q0 -19 15 -19q6 0 37 39v-45q-16 -66 -65 -66t-71 71l-1 21q-38 -94 -154 -94q-54 0 -99 50v-205z" />
<glyph unicode="&#xb6;" d="M530 730v-26q-45 -26 -45 -86v-748h-55v811h-85v-811h-55v523q-161 6 -206 75q-15 23 -19.5 44t-4.5 49.5t5 50.5q12 53 65 84q60 34 160 34h240z" />
<glyph unicode="&#xb7;" d="M194 318q0 34 23.5 57.5t57.5 23.5t57.5 -23.5t23.5 -57.5t-23.5 -57.5t-57.5 -23.5t-57.5 23.5t-23.5 57.5z" />
<glyph unicode="&#xb8;" horiz-adv-x="302" d="M38 -180q22 -4 53.5 -4t73.5 15q35 13 35 54t-49 41l-75 -5l43 93h38l-24 -62q24 3 44 3q96 0 96 -80q0 -24 -22 -45q-44 -42 -161 -42h-60z" />
<glyph unicode="&#xb9;" horiz-adv-x="377" d="M154 689v15h63v-318q4 -11 14 -14h46v-47h-186v47h39l9 1q13 1 14 11.5t1 90.5v117q-12 -2 -29 -2h-35v50h17q35 0 43 31q4 15 4 18z" />
<glyph unicode="&#xba;" horiz-adv-x="379" d="M38 315h297v-55h-297v55zM181.5 675q-31.5 0 -53 -37t-21.5 -86t25 -84.5t56.5 -35.5t53 36t21.5 85t-25 85.5t-56.5 36.5zM83 440q-44 49 -44 112.5t44 114t102 50.5t104 -50.5t46 -114t-46 -112.5t-104 -49t-102 49z" />
<glyph unicode="&#xbb;" horiz-adv-x="584" d="M529 294l-210 -182h-47l149 183l-149 183h47zM321 294l-210 -182h-47l149 183l-149 183h47z" />
<glyph unicode="&#xbc;" horiz-adv-x="748" d="M674 735l-526 -735h-74l526 735h74zM142 719v15h63v-318q4 -11 14 -14h46v-47h-186v47h39l9 1q13 1 14 11.5t1 90.5v117q-12 -2 -29 -2h-35v50h17q35 0 43 31q4 15 4 18zM460 143h79v148zM600 59q4 -15 14 -18h42v-42h-176v42h35l9 1q12 1 15 13v33h-163l163 292h61v-237 h61v-55h-61v-29z" />
<glyph unicode="&#xbd;" horiz-adv-x="748" d="M674 735l-526 -735h-74l526 735h74zM555 382q106 0 106 -101q0 -38 -16 -60.5t-58.5 -54t-60 -55t-21.5 -48.5h97q22 0 44 25l32 36l-25 -123h-212v52q0 43 43 91q15 17 54.5 52t49 50.5t9.5 35.5t-16 32.5t-42 12.5t-73 -28l-17 -10l-10 44q13 16 49 32.5t67 16.5z M142 719v15h63v-318q4 -11 14 -14h46v-47h-186v47h39l9 1q13 1 14 11.5t1 90.5v117q-12 -2 -29 -2h-35v50h17q35 0 43 31q4 15 4 18z" />
<glyph unicode="&#xbe;" horiz-adv-x="748" d="M460 143h79v148zM600 59q4 -15 14 -18h42v-42h-176v42h35l9 1q12 1 15 13v33h-163l163 292h61v-237h61v-55h-61v-29zM674 735l-526 -735h-74l526 735h74zM40 372q67 -7 74 -7t30 4.5t49.5 27.5t26.5 52q0 57 -70 57q-16 0 -27 -3l-35 -10l-7 44l30 5q6 1 23 7 q67 34 67 76q0 21 -17 33q-8 6 -33 6t-69 -35l-27 33l23 16q52 36 84 36h3l17 -1q19 -1 42 -12.5t32.5 -33.5t9.5 -47.5t-17 -45.5t-38 -32q76 -18 76 -93q0 -46 -33 -77t-69 -41.5t-66 -10.5t-64 5z" />
<glyph unicode="&#xbf;" horiz-adv-x="463" d="M315 362l3 -92q-1 -87 -28 -103.5t-62 -38.5q-63 -39 -84 -120q-4 -14 -4 -31t8 -37q13 -34 51 -56t88 -22q76 0 134 52l2 -80q-53 -25 -132 -25q-179 0 -233 117q-17 35 -17 62q0 116 105 170q27 15 49.5 25.5t38.5 32.5q32 42 32 146h49zM352 507q0 -27 -19 -46 t-46 -19t-46 19t-19 46t19 46t46 19t46 -19t19 -46z" />
<glyph unicode="&#xc0;" horiz-adv-x="849" d="M354 948l121 -162h-38l-159 104q-13 17 -13 32t10.5 29t30 14t48.5 -17zM754 45h55v-45h-298v45h60q21 0 29.5 12t8.5 21v13l-64 177h-280l-62 -177v-12q0 -10 10 -20.5t28 -13.5h60v-45h-261v45h50q18 3 34 16q15 13 21 30l232 649h90l232 -649q14 -40 55 -46zM283 315 h246l-123 345z" />
<glyph unicode="&#xc1;" horiz-adv-x="849" d="M466 948q29 17 48.5 17t30 -14t10.5 -29t-13 -32l-159 -104h-38zM754 45h55v-45h-298v45h60q21 0 29.5 12t8.5 21v13l-64 177h-280l-62 -177v-12q0 -10 10 -20.5t28 -13.5h60v-45h-261v45h50q18 3 34 16q15 13 21 30l232 649h90l232 -649q14 -40 55 -46zM283 315h246 l-123 345z" />
<glyph unicode="&#xc2;" horiz-adv-x="849" d="M428 890l-121 -97h-32l123 177h61l122 -177l-30 -3zM754 45h55v-45h-298v45h60q21 0 29.5 12t8.5 21v13l-64 177h-280l-62 -177v-12q0 -10 10 -20.5t28 -13.5h60v-45h-261v45h50q18 3 34 16q15 13 21 30l232 649h90l232 -649q14 -40 55 -46zM283 315h246l-123 345z" />
<glyph unicode="&#xc3;" horiz-adv-x="849" d="M602 934q-30 -150 -107 -150l-66 34q-55 55 -70 55q-1 0 -8 -2q-33 -11 -74 -75h-20q15 76 50 121q25 31 52 31t72 -40q69 -52 71 -51l6 2q35 12 75 76zM754 45h55v-45h-298v45h60q21 0 29.5 12t8.5 21v13l-64 177h-280l-62 -177v-12q0 -10 10 -20.5t28 -13.5h60v-45 h-261v45h50q18 3 34 16q15 13 21 30l232 649h90l232 -649q14 -40 55 -46zM283 315h246l-123 345z" />
<glyph unicode="&#xc4;" horiz-adv-x="849" d="M276 854q0 22 14.5 37.5t35.5 15.5t35.5 -15.5t14.5 -37.5t-14.5 -37.5t-35.5 -15.5t-35.5 15.5t-14.5 37.5zM466 854q0 22 15 37.5t36 15.5t35 -15.5t14 -37.5t-14 -37.5t-35 -15.5t-36 15.5t-15 37.5zM754 45h55v-45h-298v45h60q21 0 29.5 12t8.5 21v13l-64 177h-280 l-62 -177v-12q0 -10 10 -20.5t28 -13.5h60v-45h-261v45h50q18 3 34 16q15 13 21 30l232 649h90l232 -649q14 -40 55 -46zM283 315h246l-123 345z" />
<glyph unicode="&#xc5;" horiz-adv-x="849" d="M322 861.5q0 42.5 29 71.5t72 29t72 -29t29 -71.5t-29 -72t-72 -29.5t-72 29.5t-29 72zM364 863q0 -24 17 -41.5t41 -17.5t41 17.5t17 41.5t-17 41t-41 17t-41 -17t-17 -41zM754 45h55v-45h-298v45h60q21 0 29.5 12t8.5 21v13l-64 177h-280l-62 -177v-12q0 -10 10 -20.5 t28 -13.5h60v-45h-261v45h50q18 3 34 16q15 13 21 30l232 649h90l232 -649q14 -40 55 -46zM283 315h246l-123 345z" />
<glyph unicode="&#xc6;" horiz-adv-x="945" d="M502 654l-186 -339h189v330h-1q-1 4 -2 9zM706 416q50 16 50 66v45h45v-268h-45v51q0 39 -50 60h-116v-279q7 -35 40 -43l178 -1q52 7 52 56v55h45v-158h-512v47h71q41 6 41 45v176h-210l-88 -177q0 -42 28 -45q14 -1 26 -1h20v-45h-261v45h64q34 6 55 46l314 599h-60v45 h490v-159h-45v61q-4 28 -50 51h-162q-17 -3 -36 -38v-234h116z" />
<glyph unicode="&#xc7;" horiz-adv-x="741" d="M263 -180q22 -4 53.5 -4t73.5 15q35 13 35 54t-49 41l-75 -5l43 93h38l-24 -62q24 3 44 3q96 0 96 -80q0 -24 -22 -45q-44 -42 -161 -42h-60zM406 50q170 0 246 93l20 27l29 -24q-39 -51 -54.5 -64.5t-33 -26.5t-34 -21t-23.5 -12l-15 -6q-72 -27 -151 -27t-141.5 29 t-107.5 82t-73 131t-28 151q0 184 156 303q86 64 184 64t160 -24q5 -2 7.5 -2t2.5 4t-6 13h50l97 -148l-28 -23l-21 27l-40 38q-45 43 -91.5 52t-86.5 9t-77 -12.5t-73.5 -39.5t-66.5 -63t-48 -85t-18 -101q0 -143 77.5 -243.5t187.5 -100.5z" />
<glyph unicode="&#xc8;" horiz-adv-x="710" d="M308 948l121 -162h-38l-159 104q-13 17 -13 32t10.5 29t30 14t48.5 -17zM461 416q50 16 50 66v45h45v-268h-45v51q0 39 -50 60h-214v-279q5 -29 31 -43l285 -1q52 7 52 56v55h45v-158h-620v45h71q28 4 41 29v571q-3 17 -15.5 29.5t-31.5 15.5h-65v45h604v-159h-45v61 q-4 28 -50 51h-266q-17 -3 -36 -38v-234h214z" />
<glyph unicode="&#xc9;" horiz-adv-x="710" d="M424 948q29 17 48.5 17t30 -14t10.5 -29t-13 -32l-159 -104h-38zM461 416q50 16 50 66v45h45v-268h-45v51q0 39 -50 60h-214v-279q5 -29 31 -43l285 -1q52 7 52 56v55h45v-158h-620v45h71q28 4 41 29v571q-3 17 -15.5 29.5t-31.5 15.5h-65v45h604v-159h-45v61 q-4 28 -50 51h-266q-17 -3 -36 -38v-234h214z" />
<glyph unicode="&#xca;" horiz-adv-x="710" d="M384 890l-121 -97h-32l123 177h61l122 -177l-30 -3zM461 416q50 16 50 66v45h45v-268h-45v51q0 39 -50 60h-214v-279q5 -29 31 -43l285 -1q52 7 52 56v55h45v-158h-620v45h71q28 4 41 29v571q-3 17 -15.5 29.5t-31.5 15.5h-65v45h604v-159h-45v61q-4 28 -50 51h-266 q-17 -3 -36 -38v-234h214z" />
<glyph unicode="&#xcb;" horiz-adv-x="710" d="M246 854q0 22 14.5 37.5t35.5 15.5t35.5 -15.5t14.5 -37.5t-14.5 -37.5t-35.5 -15.5t-35.5 15.5t-14.5 37.5zM436 854q0 22 15 37.5t36 15.5t35 -15.5t14 -37.5t-14 -37.5t-35 -15.5t-36 15.5t-15 37.5zM461 416q50 16 50 66v45h45v-268h-45v51q0 39 -50 60h-214v-279 q5 -29 31 -43l285 -1q52 7 52 56v55h45v-158h-620v45h71q28 4 41 29v571q-3 17 -15.5 29.5t-31.5 15.5h-65v45h604v-159h-45v61q-4 28 -50 51h-266q-17 -3 -36 -38v-234h214z" />
<glyph unicode="&#xcc;" horiz-adv-x="398" d="M119 948l121 -162h-38l-159 104q-13 17 -13 32t10.5 29t30 14t48.5 -17zM247 75q7 -30 46 -30h65v-45h-318v45l71 1q28 4 41 29v577q-4 23 -47 30h-65v45h318v-45h-70q-27 -4 -41 -30v-577z" />
<glyph unicode="&#xcd;" horiz-adv-x="398" d="M279 948q29 17 48.5 17t30 -14t10.5 -29t-13 -32l-159 -104h-38zM247 75q7 -30 46 -30h65v-45h-318v45l71 1q28 4 41 29v577q-4 23 -47 30h-65v45h318v-45h-70q-27 -4 -41 -30v-577z" />
<glyph unicode="&#xce;" horiz-adv-x="398" d="M200 890l-121 -97h-32l123 177h61l122 -177l-30 -3zM247 75q7 -30 46 -30h65v-45h-318v45l71 1q28 4 41 29v577q-4 23 -47 30h-65v45h318v-45h-70q-27 -4 -41 -30v-577z" />
<glyph unicode="&#xcf;" horiz-adv-x="398" d="M57 854q0 22 14.5 37.5t35.5 15.5t35.5 -15.5t14.5 -37.5t-14.5 -37.5t-35.5 -15.5t-35.5 15.5t-14.5 37.5zM247 854q0 22 15 37.5t36 15.5t35 -15.5t14 -37.5t-14 -37.5t-35 -15.5t-36 15.5t-15 37.5zM247 75q7 -30 46 -30h65v-45h-318v45l71 1q28 4 41 29v577 q-4 23 -47 30h-65v45h318v-45h-70q-27 -4 -41 -30v-577z" />
<glyph unicode="&#xd0;" horiz-adv-x="785" d="M467 735q66 0 129 -54.5t101 -140.5t38 -171.5t-37.5 -170t-105 -141.5t-144.5 -57h-408v45h71v1q28 4 41 29v271h-112v43h112v256h-1q-3 17 -15.5 29.5t-30.5 15.5h-65v45h427zM407 50q63 0 114 47t77.5 118.5t26.5 157t-27 158t-78.5 115.5t-118.5 43h-113v-1 q-28 -4 -41 -29v-270h172v-43h-172v-255q5 -29 31 -41h129z" />
<glyph unicode="&#xd1;" horiz-adv-x="941" d="M663 934q-30 -150 -107 -150l-66 34q-55 55 -70 55q-1 0 -8 -2q-33 -11 -74 -75h-20q15 76 50 121q25 31 52 31t72 -40q69 -52 71 -51l6 2q35 12 75 76zM253 112q0 -67 89 -67h22v-45h-294v45l25 1q87 3 87 66v540q-4 23 -47 30h-65v45h185l434 -513v398q0 70 -84 70h-28 v45h294v-46h-26q-85 0 -85 -69v-642l-507 601v-459z" />
<glyph unicode="&#xd2;" horiz-adv-x="814" d="M356 948l121 -162h-38l-159 104q-13 17 -13 32t10.5 29t30 14t48.5 -17zM82 170q-52 86 -52 190t52 191.5t137 140.5t188 53t187.5 -50t137 -137.5t52.5 -196t-52.5 -194.5t-137 -136.5t-187.5 -50.5t-188 52t-137 138zM413 692h-33q-85 0 -158 -98t-73 -238t78 -231 t187.5 -91t180 92.5t70.5 238.5t-77.5 236.5t-174.5 90.5z" />
<glyph unicode="&#xd3;" horiz-adv-x="814" d="M487 948q29 17 48.5 17t30 -14t10.5 -29t-13 -32l-159 -104h-38zM82 170q-52 86 -52 190t52 191.5t137 140.5t188 53t187.5 -50t137 -137.5t52.5 -196t-52.5 -194.5t-137 -136.5t-187.5 -50.5t-188 52t-137 138zM413 692h-33q-85 0 -158 -98t-73 -238t78 -231t187.5 -91 t180 92.5t70.5 238.5t-77.5 236.5t-174.5 90.5z" />
<glyph unicode="&#xd4;" horiz-adv-x="814" d="M408 890l-121 -97h-32l123 177h61l122 -177l-30 -3zM82 170q-52 86 -52 190t52 191.5t137 140.5t188 53t187.5 -50t137 -137.5t52.5 -196t-52.5 -194.5t-137 -136.5t-187.5 -50.5t-188 52t-137 138zM413 692h-33q-85 0 -158 -98t-73 -238t78 -231t187.5 -91t180 92.5 t70.5 238.5t-77.5 236.5t-174.5 90.5z" />
<glyph unicode="&#xd5;" horiz-adv-x="814" d="M582 934q-30 -150 -107 -150l-66 34q-55 55 -70 55q-1 0 -8 -2q-33 -11 -74 -75h-20q15 76 50 121q25 31 52 31t72 -40q69 -52 71 -51l6 2q35 12 75 76zM82 170q-52 86 -52 190t52 191.5t137 140.5t188 53t187.5 -50t137 -137.5t52.5 -196t-52.5 -194.5t-137 -136.5 t-187.5 -50.5t-188 52t-137 138zM413 692h-33q-85 0 -158 -98t-73 -238t78 -231t187.5 -91t180 92.5t70.5 238.5t-77.5 236.5t-174.5 90.5z" />
<glyph unicode="&#xd6;" horiz-adv-x="814" d="M270 854q0 22 14.5 37.5t35.5 15.5t35.5 -15.5t14.5 -37.5t-14.5 -37.5t-35.5 -15.5t-35.5 15.5t-14.5 37.5zM460 854q0 22 15 37.5t36 15.5t35 -15.5t14 -37.5t-14 -37.5t-35 -15.5t-36 15.5t-15 37.5zM82 170q-52 86 -52 190t52 191.5t137 140.5t188 53t187.5 -50 t137 -137.5t52.5 -196t-52.5 -194.5t-137 -136.5t-187.5 -50.5t-188 52t-137 138zM413 692h-33q-85 0 -158 -98t-73 -238t78 -231t187.5 -91t180 92.5t70.5 238.5t-77.5 236.5t-174.5 90.5z" />
<glyph unicode="&#xd7;" horiz-adv-x="475" d="M282 352l156 -155l-45 -45l-155 156l-156 -156l-45 45l155 155l-155 156l45 45l156 -155l155 155l45 -45z" />
<glyph unicode="&#xd8;" horiz-adv-x="814" d="M618 557l-396 -425l9 -12q75 -86 183 -86t179.5 92.5t71.5 219t-47 211.5zM132 104q-102 110 -102 256q0 104 52 191.5t137 140.5t188 53q137 0 241 -88l60 65h64l-91 -97q103 -112 103 -263q0 -109 -52.5 -195t-137 -136.5t-187.5 -50.5q-136 0 -242 91l-66 -71h-64z M405 692h-16q-95 0 -167.5 -98t-72.5 -219t46 -203l396 424l-8 10q-74 86 -178 86z" />
<glyph unicode="&#xd9;" horiz-adv-x="859" d="M398 948l121 -162h-38l-159 104q-13 17 -13 32t10.5 29t30 14t48.5 -17zM95 695h-55v45h308v-45h-60q-21 0 -29.5 -11.5t-8.5 -21.5v-382q0 -221 200 -221q196 0 205 221v381q0 10 -9.5 20.5t-27.5 13.5h-60v45h261v-45h-50q-14 -2 -34.5 -16.5t-20.5 -29.5v-369 q0 -280 -267 -280q-297 0 -297 280v369q0 38 -55 46z" />
<glyph unicode="&#xda;" horiz-adv-x="859" d="M535 948q29 17 48.5 17t30 -14t10.5 -29t-13 -32l-159 -104h-38zM95 695h-55v45h308v-45h-60q-21 0 -29.5 -11.5t-8.5 -21.5v-382q0 -221 200 -221q196 0 205 221v381q0 10 -9.5 20.5t-27.5 13.5h-60v45h261v-45h-50q-14 -2 -34.5 -16.5t-20.5 -29.5v-369 q0 -280 -267 -280q-297 0 -297 280v369q0 38 -55 46z" />
<glyph unicode="&#xdb;" horiz-adv-x="859" d="M450 890l-121 -97h-32l123 177h61l122 -177l-30 -3zM95 695h-55v45h308v-45h-60q-21 0 -29.5 -11.5t-8.5 -21.5v-382q0 -221 200 -221q196 0 205 221v381q0 10 -9.5 20.5t-27.5 13.5h-60v45h261v-45h-50q-14 -2 -34.5 -16.5t-20.5 -29.5v-369q0 -280 -267 -280 q-297 0 -297 280v369q0 38 -55 46z" />
<glyph unicode="&#xdc;" horiz-adv-x="859" d="M308 854q0 22 14.5 37.5t35.5 15.5t35.5 -15.5t14.5 -37.5t-14.5 -37.5t-35.5 -15.5t-35.5 15.5t-14.5 37.5zM498 854q0 22 15 37.5t36 15.5t35 -15.5t14 -37.5t-14 -37.5t-35 -15.5t-36 15.5t-15 37.5zM95 695h-55v45h308v-45h-60q-21 0 -29.5 -11.5t-8.5 -21.5v-382 q0 -221 200 -221q196 0 205 221v381q0 10 -9.5 20.5t-27.5 13.5h-60v45h261v-45h-50q-14 -2 -34.5 -16.5t-20.5 -29.5v-369q0 -280 -267 -280q-297 0 -297 280v369q0 38 -55 46z" />
<glyph unicode="&#xdd;" horiz-adv-x="866" d="M538 948q29 17 48.5 17t30 -14t10.5 -29t-13 -32l-159 -104h-38zM489 75q7 -30 46 -30h65v-45h-318v45l71 1q28 4 41 29v247l-215 330q-14 25 -62 29l-77 1v45h355v-45h-52q-39 -7 -44 -30l158 -256l162 256q-5 23 -45 30h-54v45h306v-47h-93q-32 -4 -47 -27l-197 -301 v-277z" />
<glyph unicode="&#xde;" horiz-adv-x="585" d="M173 547v-324h110q80 0 142 82q17 23 17 78t-18 84q-47 80 -128 80h-123zM546 392v-10q0 -57 -37 -118q-51 -84 -193 -92q-35 -2 -143 -2v-101q7 -30 26 -30h53v-45h-241v45l58 1l21 29v588l-21 29l-58 1v45h241v-45h-53q-19 0 -26 -30v-58h94q32 0 54 -1q112 -5 187 -88 q38 -42 38 -118z" />
<glyph unicode="&#xdf;" horiz-adv-x="619" d="M55 520q0 139 71 211t160.5 72t152.5 -50t63 -134v-72q-14 1 -26 1q-125 0 -125 -118v-2q0 -20 86 -61q42 -20 60.5 -32t41.5 -33q50 -44 50 -117q0 -51 -20 -89q-50 -99 -200 -99h-2q-92 0 -172 53l49 43q2 -10 60 -33q22 -9 69 -9q122 0 122 129q0 31 -15 48 q-37 38 -83 62q-131 66 -131 137v4q0 60 37 107t106 73v38q0 42 -26 73t-90.5 31t-104.5 -52t-40 -181v-519l-143 -1v35q50 5 50 43v442z" />
<glyph unicode="&#xe0;" horiz-adv-x="559" d="M233 748l121 -162h-38l-159 104q-13 17 -13 32t10.5 29t30 14t48.5 -17zM529 53q-16 -66 -69.5 -66t-75.5 71q-55 -72 -126 -72q-86 0 -147 42.5t-61 106.5v3q0 112 126 171q70 33 111 33t97 -24l1 44q0 55 -18 73q-39 36 -103 36t-179 -72l-2 78q96 48 196 48h5 q61 0 122 -44q32 -23 51.5 -61t19.5 -85v-269q6 -7 15 -7q2 0 37 39v-45zM384 239q-8 45 -73 45h-6q-50 0 -103 -45t-53 -96q0 -7 1 -14q10 -82 111 -82q52 0 77 25t32 42t10.5 43t3.5 34v48z" />
<glyph unicode="&#xe1;" horiz-adv-x="559" d="M334 748q29 17 48.5 17t30 -14t10.5 -29t-13 -32l-159 -104h-38zM529 53q-16 -66 -69.5 -66t-75.5 71q-55 -72 -126 -72q-86 0 -147 42.5t-61 106.5v3q0 112 126 171q70 33 111 33t97 -24l1 44q0 55 -18 73q-39 36 -103 36t-179 -72l-2 78q96 48 196 48h5q61 0 122 -44 q32 -23 51.5 -61t19.5 -85v-269q6 -7 15 -7q2 0 37 39v-45zM384 239q-8 45 -73 45h-6q-50 0 -103 -45t-53 -96q0 -7 1 -14q10 -82 111 -82q52 0 77 25t32 42t10.5 43t3.5 34v48z" />
<glyph unicode="&#xe2;" horiz-adv-x="559" d="M291 690l-121 -97h-32l123 177h61l122 -177l-30 -3zM529 53q-16 -66 -69.5 -66t-75.5 71q-55 -72 -126 -72q-86 0 -147 42.5t-61 106.5v3q0 112 126 171q70 33 111 33t97 -24l1 44q0 55 -18 73q-39 36 -103 36t-179 -72l-2 78q96 48 196 48h5q61 0 122 -44 q32 -23 51.5 -61t19.5 -85v-269q6 -7 15 -7q2 0 37 39v-45zM384 239q-8 45 -73 45h-6q-50 0 -103 -45t-53 -96q0 -7 1 -14q10 -82 111 -82q52 0 77 25t32 42t10.5 43t3.5 34v48z" />
<glyph unicode="&#xe3;" horiz-adv-x="559" d="M450 734q-30 -150 -107 -150l-66 34q-55 55 -70 55q-1 0 -8 -2q-33 -11 -74 -75h-20q15 76 50 121q25 31 52 31t72 -40q69 -52 71 -51l6 2q35 12 75 76zM529 53q-16 -66 -69.5 -66t-75.5 71q-55 -72 -126 -72q-86 0 -147 42.5t-61 106.5v3q0 112 126 171q70 33 111 33 t97 -24l1 44q0 55 -18 73q-39 36 -103 36t-179 -72l-2 78q96 48 196 48h5q61 0 122 -44q32 -23 51.5 -61t19.5 -85v-269q6 -7 15 -7q2 0 37 39v-45zM384 239q-8 45 -73 45h-6q-50 0 -103 -45t-53 -96q0 -7 1 -14q10 -82 111 -82q52 0 77 25t32 42t10.5 43t3.5 34v48z" />
<glyph unicode="&#xe4;" horiz-adv-x="559" d="M141 654q0 22 14.5 37.5t35.5 15.5t35.5 -15.5t14.5 -37.5t-14.5 -37.5t-35.5 -15.5t-35.5 15.5t-14.5 37.5zM331 654q0 22 15 37.5t36 15.5t35 -15.5t14 -37.5t-14 -37.5t-35 -15.5t-36 15.5t-15 37.5zM529 53q-16 -66 -69.5 -66t-75.5 71q-55 -72 -126 -72 q-86 0 -147 42.5t-61 106.5v3q0 112 126 171q70 33 111 33t97 -24l1 44q0 55 -18 73q-39 36 -103 36t-179 -72l-2 78q96 48 196 48h5q61 0 122 -44q32 -23 51.5 -61t19.5 -85v-269q6 -7 15 -7q2 0 37 39v-45zM384 239q-8 45 -73 45h-6q-50 0 -103 -45t-53 -96q0 -7 1 -14 q10 -82 111 -82q52 0 77 25t32 42t10.5 43t3.5 34v48z" />
<glyph unicode="&#xe5;" horiz-adv-x="559" d="M187 661.5q0 42.5 29 71.5t72 29t72 -29t29 -71.5t-29 -72t-72 -29.5t-72 29.5t-29 72zM229 663q0 -24 17 -41.5t41 -17.5t41 17.5t17 41.5t-17 41t-41 17t-41 -17t-17 -41zM529 53q-16 -66 -69.5 -66t-75.5 71q-55 -72 -126 -72q-86 0 -147 42.5t-61 106.5v3 q0 112 126 171q70 33 111 33t97 -24l1 44q0 55 -18 73q-39 36 -103 36t-179 -72l-2 78q96 48 196 48h5q61 0 122 -44q32 -23 51.5 -61t19.5 -85v-269q6 -7 15 -7q2 0 37 39v-45zM384 239q-8 45 -73 45h-6q-50 0 -103 -45t-53 -96q0 -7 1 -14q10 -82 111 -82q52 0 77 25 t32 42t10.5 43t3.5 34v48z" />
<glyph unicode="&#xe6;" horiz-adv-x="797" d="M344 219q-1 11 -1 23q-8 12 -69 12h-5q-54 0 -96 -30t-42 -81q0 -7 1 -14q9 -82 97 -82q47 0 71.5 25t34 50t9.5 69v28zM660 293q-2 155 -87 155h-1q-110 0 -134 -142v-13h222zM577 -15q-118 0 -179 95q-55 -94 -171 -94h-1q-86 0 -141 42.5t-55 106.5v3q0 85 96 141 q49 29 130.5 29t87.5 -3l1 47v6q0 36 -11 48q-35 36 -104.5 36t-158.5 -62l-2 77q86 48 176 48h5q63 0 119 -44q19 -15 33 -41q82 90 170.5 90t136.5 -67.5t48 -177.5v-24h-319v-18q11 -68 40 -126q44 -58 122.5 -58t148.5 59l-3 -64q-77 -49 -165 -49h-4z" />
<glyph unicode="&#xe7;" horiz-adv-x="491" d="M168 -180q22 -4 53.5 -4t73.5 15q35 13 35 54t-49 41l-75 -5l43 93h38l-24 -62q24 3 44 3q96 0 96 -80q0 -24 -22 -45q-44 -42 -161 -42h-60zM445 69v-52q-60 -28 -112 -28h-13q-117 0 -196 75.5t-79 185.5t85.5 183t193.5 73q81 0 127 -31l-26 -72q-45 39 -93 39 q-74 0 -131 -57t-57 -137.5t61 -141.5t145 -61q52 0 95 24z" />
<glyph unicode="&#xe8;" horiz-adv-x="561" d="M242 748l121 -162h-38l-159 104q-13 17 -13 32t10.5 29t30 14t48.5 -17zM496 34q-88 -49 -190 -49h-4q-121 0 -190.5 70t-69.5 194t68 190q75 71 189.5 71t168 -72t53.5 -182v-24h-384q6 -78 53 -135q50 -58 140 -58t170 59zM439 284q-3 164 -134 164h-2 q-143 0 -166 -164h302z" />
<glyph unicode="&#xe9;" horiz-adv-x="561" d="M349 748q29 17 48.5 17t30 -14t10.5 -29t-13 -32l-159 -104h-38zM496 34q-88 -49 -190 -49h-4q-121 0 -190.5 70t-69.5 194t68 190q75 71 189.5 71t168 -72t53.5 -182v-24h-384q6 -78 53 -135q50 -58 140 -58t170 59zM439 284q-3 164 -134 164h-2q-143 0 -166 -164h302z " />
<glyph unicode="&#xea;" horiz-adv-x="561" d="M309 690l-121 -97h-32l123 177h61l122 -177l-30 -3zM496 34q-88 -49 -190 -49h-4q-121 0 -190.5 70t-69.5 194t68 190q75 71 189.5 71t168 -72t53.5 -182v-24h-384q6 -78 53 -135q50 -58 140 -58t170 59zM439 284q-3 164 -134 164h-2q-143 0 -166 -164h302z" />
<glyph unicode="&#xeb;" horiz-adv-x="561" d="M153 654q0 22 14.5 37.5t35.5 15.5t35.5 -15.5t14.5 -37.5t-14.5 -37.5t-35.5 -15.5t-35.5 15.5t-14.5 37.5zM343 654q0 22 15 37.5t36 15.5t35 -15.5t14 -37.5t-14 -37.5t-35 -15.5t-36 15.5t-15 37.5zM496 34q-88 -49 -190 -49h-4q-121 0 -190.5 70t-69.5 194t68 190 q75 71 189.5 71t168 -72t53.5 -182v-24h-384q6 -78 53 -135q50 -58 140 -58t170 59zM439 284q-3 164 -134 164h-2q-143 0 -166 -164h302z" />
<glyph unicode="&#xec;" horiz-adv-x="285" d="M119 748l121 -162h-38l-159 104q-13 17 -13 32t10.5 29t30 14t48.5 -17zM185 75q7 -30 36 -30h48v-45h-251v45l53 1q20 4 31 29v345h-75v20l119 80h39v-445z" />
<glyph unicode="&#xed;" horiz-adv-x="285" d="M151 748q29 17 48.5 17t30 -14t10.5 -29t-13 -32l-159 -104h-38zM185 75q7 -30 36 -30h48v-45h-251v45l53 1q20 4 31 29v345h-75v20l119 80h39v-445z" />
<glyph unicode="&#xee;" horiz-adv-x="285" d="M143 690l-121 -97h-32l123 177h61l122 -177l-30 -3zM185 75q7 -30 36 -30h48v-45h-251v45l53 1q20 4 31 29v345h-75v20l119 80h39v-445z" />
<glyph unicode="&#xef;" horiz-adv-x="285" d="M-4 654q0 22 14.5 37.5t35.5 15.5t35.5 -15.5t14.5 -37.5t-14.5 -37.5t-35.5 -15.5t-35.5 15.5t-14.5 37.5zM186 654q0 22 15 37.5t36 15.5t35 -15.5t14 -37.5t-14 -37.5t-35 -15.5t-36 15.5t-15 37.5zM185 75q7 -30 36 -30h48v-45h-251v45l53 1q20 4 31 29v345h-75v20 l119 80h39v-445z" />
<glyph unicode="&#xf0;" horiz-adv-x="535" d="M382 200q2 16 2 31q0 62 -20.5 118.5t-110.5 56.5q-44 0 -73 -49.5t-29 -119.5v-2q0 -79 27.5 -135t94.5 -56q89 0 109 156zM479 323q3 -30 3 -60q0 -196 -125 -251q-43 -19 -83 -19h-1q-113 0 -166 71t-53 167.5t62.5 163t132.5 67.5q89 0 128 -42q-43 122 -143 198 l-112 -101l-25 31l101 91q-32 33 -128 63l-4 38q97 -16 177 -60l78 74l27 -35l-66 -63q81 -63 135 -158t62 -175z" />
<glyph unicode="&#xf1;" horiz-adv-x="644" d="M507 734q-30 -150 -107 -150l-66 34q-55 55 -70 55q-1 0 -8 -2q-33 -11 -74 -75h-20q15 76 50 121q25 31 52 31t72 -40q69 -52 71 -51l6 2q35 12 75 76zM184 416q37 95 163 95q193 -1 193 -247v-189q7 -30 36 -30h38v-45h-231v45l43 1q20 4 31 29v169q0 212 -117 212 q-156 0 -156 -203v-178q7 -30 36 -30h38v-45h-231v45l43 1q20 4 31 29v345h-75v20l119 80h39v-104z" />
<glyph unicode="&#xf2;" d="M221 748l121 -162h-38l-159 104q-13 17 -13 32t10.5 29t30 14t48.5 -17zM100 59q-70 78 -70 187t70 189t171.5 80t175 -80t73.5 -189t-73.5 -187t-175 -78t-171.5 78zM373.5 395.5q-47.5 62.5 -108.5 62.5t-101.5 -63.5t-40.5 -150t47.5 -147t107 -60.5t101.5 62t42 148 t-47.5 148.5z" />
<glyph unicode="&#xf3;" d="M340 748q29 17 48.5 17t30 -14t10.5 -29t-13 -32l-159 -104h-38zM100 59q-70 78 -70 187t70 189t171.5 80t175 -80t73.5 -189t-73.5 -187t-175 -78t-171.5 78zM373.5 395.5q-47.5 62.5 -108.5 62.5t-101.5 -63.5t-40.5 -150t47.5 -147t107 -60.5t101.5 62t42 148 t-47.5 148.5z" />
<glyph unicode="&#xf4;" d="M280 690l-121 -97h-32l123 177h61l122 -177l-30 -3zM100 59q-70 78 -70 187t70 189t171.5 80t175 -80t73.5 -189t-73.5 -187t-175 -78t-171.5 78zM373.5 395.5q-47.5 62.5 -108.5 62.5t-101.5 -63.5t-40.5 -150t47.5 -147t107 -60.5t101.5 62t42 148t-47.5 148.5z" />
<glyph unicode="&#xf5;" d="M459 734q-30 -150 -107 -150l-66 34q-55 55 -70 55q-1 0 -8 -2q-33 -11 -74 -75h-20q15 76 50 121q25 31 52 31t72 -40q69 -52 71 -51l6 2q35 12 75 76zM100 59q-70 78 -70 187t70 189t171.5 80t175 -80t73.5 -189t-73.5 -187t-175 -78t-171.5 78zM373.5 395.5 q-47.5 62.5 -108.5 62.5t-101.5 -63.5t-40.5 -150t47.5 -147t107 -60.5t101.5 62t42 148t-47.5 148.5z" />
<glyph unicode="&#xf6;" d="M135 654q0 22 14.5 37.5t35.5 15.5t35.5 -15.5t14.5 -37.5t-14.5 -37.5t-35.5 -15.5t-35.5 15.5t-14.5 37.5zM325 654q0 22 15 37.5t36 15.5t35 -15.5t14 -37.5t-14 -37.5t-35 -15.5t-36 15.5t-15 37.5zM100 59q-70 78 -70 187t70 189t171.5 80t175 -80t73.5 -189 t-73.5 -187t-175 -78t-171.5 78zM373.5 395.5q-47.5 62.5 -108.5 62.5t-101.5 -63.5t-40.5 -150t47.5 -147t107 -60.5t101.5 62t42 148t-47.5 148.5z" />
<glyph unicode="&#xf7;" horiz-adv-x="540" d="M490 317v-62h-440v62h440zM211 459q0 24 17.5 41.5t41.5 17.5t41.5 -17.5t17.5 -41.5t-17.5 -41.5t-41.5 -17.5t-41.5 17.5t-17.5 41.5zM211 110.5q0 24.5 17.5 42t41.5 17.5t41.5 -17.5t17.5 -42t-17.5 -42t-41.5 -17.5t-41.5 17.5t-17.5 42z" />
<glyph unicode="&#xf8;" d="M398 354l-224 -261q44 -56 103.5 -56t101.5 62t42 133t-23 122zM423 458l33 38h64l-63 -73q63 -76 63 -181t-73.5 -183t-174.5 -78q-85 0 -148 54l-30 -35h-64l60 70q-60 75 -60 180t70 185t172 80q85 0 151 -57zM372 398q-46 60 -106 60t-101.5 -63.5t-41.5 -135.5 t24 -123z" />
<glyph unicode="&#xf9;" horiz-adv-x="552" d="M209 748l121 -162h-38l-159 104q-13 17 -13 32t10.5 29t30 14t48.5 -17zM321 514h159v-448q6 -7 15 -7q6 0 37 39v-45q-16 -66 -65 -66t-71 71v22q-37 -95 -164 -95q-167 1 -167 247v237h-75v45h158v-262q2 -210 92 -210q156 0 156 203v224h-75v45z" />
<glyph unicode="&#xfa;" horiz-adv-x="552" d="M310 748q29 17 48.5 17t30 -14t10.5 -29t-13 -32l-159 -104h-38zM321 514h159v-448q6 -7 15 -7q6 0 37 39v-45q-16 -66 -65 -66t-71 71v22q-37 -95 -164 -95q-167 1 -167 247v237h-75v45h158v-262q2 -210 92 -210q156 0 156 203v224h-75v45z" />
<glyph unicode="&#xfb;" horiz-adv-x="552" d="M255 690l-121 -97h-32l123 177h61l122 -177l-30 -3zM321 514h159v-448q6 -7 15 -7q6 0 37 39v-45q-16 -66 -65 -66t-71 71v22q-37 -95 -164 -95q-167 1 -167 247v237h-75v45h158v-262q2 -210 92 -210q156 0 156 203v224h-75v45z" />
<glyph unicode="&#xfc;" horiz-adv-x="552" d="M117 654q0 22 14.5 37.5t35.5 15.5t35.5 -15.5t14.5 -37.5t-14.5 -37.5t-35.5 -15.5t-35.5 15.5t-14.5 37.5zM307 654q0 22 15 37.5t36 15.5t35 -15.5t14 -37.5t-14 -37.5t-35 -15.5t-36 15.5t-15 37.5zM321 514h159v-448q6 -7 15 -7q6 0 37 39v-45q-16 -66 -65 -66 t-71 71v22q-37 -95 -164 -95q-167 1 -167 247v237h-75v45h158v-262q2 -210 92 -210q156 0 156 203v224h-75v45z" />
<glyph unicode="&#xfd;" horiz-adv-x="630" d="M391 748q29 17 48.5 17t30 -14t10.5 -29t-13 -32l-159 -104h-38zM192 429q0 -6 1 -18l148 -307l134 307v12q0 9 -2 19.5t-20 13.5v1h-45v45h201v-45h-35q-2 -2 -17.5 -15t-22.5 -31q-207 -467 -227 -505q-51 -96 -173 -96h-66v62q65 -6 70 -9q96 0 135 82q21 44 21 48.5 t-1 6.5l-208 431q-13 24 -30 26h-40v45h243v-45h-42v-1q-24 -1 -24 -27z" />
<glyph unicode="&#xfe;" horiz-adv-x="585" d="M422 395q-36 55 -101 55q-119 0 -133 -178v-54q9 -166 133 -167q60 0 98 52t40 146q-1 91 -37 146zM186 447q55 67 143 68h3q104 0 168.5 -74.5t64.5 -195t-65.5 -190.5t-167.5 -70h-3q-87 1 -144 66v-146q7 -30 36 -30h48v-45h-251v45l53 1q20 4 31 29v725h-75v20 l119 80h40v-283z" />
<glyph unicode="&#xff;" horiz-adv-x="630" d="M198 654q0 22 14.5 37.5t35.5 15.5t35.5 -15.5t14.5 -37.5t-14.5 -37.5t-35.5 -15.5t-35.5 15.5t-14.5 37.5zM388 654q0 22 15 37.5t36 15.5t35 -15.5t14 -37.5t-14 -37.5t-35 -15.5t-36 15.5t-15 37.5zM192 429q0 -6 1 -18l148 -307l134 307v12q0 9 -2 19.5t-20 13.5v1 h-45v45h201v-45h-35q-2 -2 -17.5 -15t-22.5 -31q-207 -467 -227 -505q-51 -96 -173 -96h-66v62q65 -6 70 -9q96 0 135 82q21 44 21 48.5t-1 6.5l-208 431q-13 24 -30 26h-40v45h243v-45h-42v-1q-24 -1 -24 -27z" />
<glyph unicode="&#x152;" horiz-adv-x="880" d="M76.5 170q-46.5 86 -46.5 190t46 191.5t130.5 135.5t178.5 48h449v-159h-45v61q-4 28 -50 51h-162q-17 -3 -36 -38v-234h110q50 16 50 66v45h45v-268h-45v51q0 39 -50 60h-110v-279q5 -29 31 -43l181 -1q52 7 52 56v55h45v-158h-465q-93 0 -177.5 42t-131 128zM377 681 q-81 0 -161.5 -82t-80.5 -244t90 -236q79 -65 166 -65q42 0 54 1v625q-9 1 -68 1z" />
<glyph unicode="&#x153;" horiz-adv-x="839" d="M712 284q-2 164 -109 164h-1q-112 0 -134 -153q1 -5 2 -11h242zM415 422q68 88 178 88t158 -72t48 -182v-24h-327q-1 -18 -4 -35q27 -158 158 -158q82 0 154 59l-3 -64q-79 -49 -171 -49h-4q-124 0 -185 88q-70 -92 -165.5 -92t-158.5 78t-63 187t63 189t158 80t164 -93z M368 267q-5 76 -40.5 133.5t-84 57.5t-82.5 -63.5t-34 -149.5t38.5 -147t87 -61t80.5 59t36 128q-1 12 -1 23v20z" />
<glyph unicode="&#x178;" horiz-adv-x="866" d="M315 854q0 22 14.5 37.5t35.5 15.5t35.5 -15.5t14.5 -37.5t-14.5 -37.5t-35.5 -15.5t-35.5 15.5t-14.5 37.5zM505 854q0 22 15 37.5t36 15.5t35 -15.5t14 -37.5t-14 -37.5t-35 -15.5t-36 15.5t-15 37.5zM489 75q7 -30 46 -30h65v-45h-318v45l71 1q28 4 41 29v247 l-215 330q-14 25 -62 29l-77 1v45h355v-45h-52q-39 -7 -44 -30l158 -256l162 256q-5 23 -45 30h-54v45h306v-47h-93q-32 -4 -47 -27l-197 -301v-277z" />
<glyph unicode="&#x2000;" horiz-adv-x="485" />
<glyph unicode="&#x2001;" horiz-adv-x="970" />
<glyph unicode="&#x2002;" horiz-adv-x="485" />
<glyph unicode="&#x2003;" horiz-adv-x="970" />
<glyph unicode="&#x2004;" horiz-adv-x="323" />
<glyph unicode="&#x2005;" horiz-adv-x="242" />
<glyph unicode="&#x2006;" horiz-adv-x="161" />
<glyph unicode="&#x2007;" horiz-adv-x="161" />
<glyph unicode="&#x2008;" horiz-adv-x="121" />
<glyph unicode="&#x2009;" horiz-adv-x="194" />
<glyph unicode="&#x200a;" horiz-adv-x="53" />
<glyph unicode="&#x2010;" horiz-adv-x="470" d="M410 317v-62h-350v62h350z" />
<glyph unicode="&#x2011;" horiz-adv-x="470" d="M410 317v-62h-350v62h350z" />
<glyph unicode="&#x2012;" horiz-adv-x="470" d="M410 317v-62h-350v62h350z" />
<glyph unicode="&#x2013;" horiz-adv-x="620" d="M560 317v-62h-500v62h500z" />
<glyph unicode="&#x2014;" horiz-adv-x="1120" d="M1060 317v-62h-1000v62h1000z" />
<glyph unicode="&#x201c;" horiz-adv-x="1000" d="M527 601v2q1 49 20 80q46 72 78 102q9 9 19 9h1q9 0 15.5 -6.5t6.5 -9.5t-2 -5q-35 -56 -45 -93q32 0 49 -23.5t17 -56t-23.5 -55.5t-56.5 -23t-56 23t-23 56zM721 599v2q1 49 20 80q46 72 78 102q9 9 19 9h1q9 0 15.5 -6.5t6.5 -9.5t-2 -5q-35 -56 -45 -93 q32 0 49 -23.5t17 -56t-23.5 -55.5t-56.5 -23t-56 23t-23 56z" />
<glyph unicode="&#x201d;" horiz-adv-x="1000" d="M473 713v-2q-1 -49 -20 -80q-46 -72 -78 -102q-9 -9 -19 -9h-1q-9 0 -15.5 6.5t-6.5 9.5t2 5q35 56 45 93q-32 0 -49 23.5t-17 56t23.5 55.5t56.5 23t56 -23t23 -56zM279 715v-2q-1 -49 -20 -80q-46 -72 -78 -102q-9 -9 -19 -9h-1q-9 0 -15.5 6.5t-6.5 9.5t2 5 q35 56 45 93q-32 0 -49 23.5t-17 56t23.5 55.5t56.5 23t56 -23t23 -56z" />
<glyph unicode="&#x201e;" horiz-adv-x="592" d="M473 79v-2q-1 -49 -20 -80q-46 -72 -78 -102q-9 -9 -19 -9h-1q-9 0 -15.5 6.5t-6.5 9.5t2 5q35 56 45 93q-32 0 -49 23.5t-17 56t23.5 55.5t56.5 23t56 -23t23 -56zM279 81v-2q-1 -49 -20 -80q-46 -72 -78 -102q-9 -9 -19 -9h-1q-9 0 -15.5 6.5t-6.5 9.5t2 5q35 56 45 93 q-32 0 -49 23.5t-17 56t23.5 55.5t56.5 23t56 -23t23 -56z" />
<glyph unicode="&#x2026;" horiz-adv-x="1000" d="M433 67.5q0 27.5 20 47t47.5 19.5t47 -19.5t19.5 -47t-19.5 -47.5t-47 -20t-47.5 20t-20 47.5zM101 67.5q0 27.5 20 47t47.5 19.5t47 -19.5t19.5 -47t-19.5 -47.5t-47 -20t-47.5 20t-20 47.5zM765 67.5q0 27.5 20 47t47.5 19.5t47 -19.5t19.5 -47t-19.5 -47.5t-47 -20 t-47.5 20t-20 47.5z" />
<glyph unicode="&#x202f;" horiz-adv-x="194" />
<glyph unicode="&#x205f;" horiz-adv-x="242" />
<glyph unicode="&#x25fc;" horiz-adv-x="500" d="M0 500h500v-500h-500v500z" />
</font>
</defs>
</svg>
